<?xml version="1.0" encoding="UTF-8"?>
<!DOCTYPE svg PUBLIC "-//W3C//DTD SVG 1.1//EN" "http://www.w3.org/Graphics/SVG/1.1/DTD/svg11.dtd">
<!-- Creator: CorelDRAW 2021 (64-Bit) -->
<svg xmlns="http://www.w3.org/2000/svg" xml:space="preserve" width="297mm" height="210mm" version="1.1" style="shape-rendering:geometricPrecision; text-rendering:geometricPrecision; image-rendering:optimizeQuality; fill-rule:evenodd; clip-rule:evenodd"
viewBox="0 0 29700 21000"
 xmlns:xlink="http://www.w3.org/1999/xlink"
 xmlns:xodm="http://www.corel.com/coreldraw/odm/2003">
 <defs>
  <style type="text/css">
   <![CDATA[
    .str12 {stroke:#55A6E0;stroke-width:12.95;stroke-miterlimit:22.9256}
    .str6 {stroke:#90278E;stroke-width:5.89;stroke-miterlimit:22.9256}
    .str1 {stroke:#FEFEFE;stroke-width:105.83;stroke-miterlimit:22.9256}
    .str14 {stroke:#55A6E0;stroke-width:6;stroke-miterlimit:22.9256}
    .str13 {stroke:#55A6E0;stroke-width:3.53;stroke-miterlimit:22.9256}
    .str0 {stroke:#FEFEFE;stroke-width:42.33;stroke-miterlimit:22.9256}
    .str3 {stroke:#FEFEFE;stroke-width:42.33;stroke-miterlimit:22.9256}
    .str5 {stroke:#90278E;stroke-width:9.42;stroke-miterlimit:22.9256}
    .str9 {stroke:#FEFEFE;stroke-width:4.48;stroke-miterlimit:22.9256}
    .str4 {stroke:#FEFEFE;stroke-width:20;stroke-miterlimit:22.9256}
    .str16 {stroke:#F6F5F4;stroke-width:20;stroke-miterlimit:22.9256}
    .str11 {stroke:#55A6E0;stroke-width:20;stroke-miterlimit:22.9256}
    .str10 {stroke:#8BC43F;stroke-width:20;stroke-miterlimit:22.9256}
    .str8 {stroke:#90278E;stroke-width:20;stroke-miterlimit:22.9256}
    .str2 {stroke:#E62A79;stroke-width:20;stroke-miterlimit:22.9256}
    .str7 {stroke:#90278E;stroke-width:2.36;stroke-miterlimit:22.9256}
    .str15 {stroke:#55A6E0;stroke-width:7.62;stroke-miterlimit:22.9256}
    .fil1 {fill:none}
    .fil0 {fill:#FEFEFE}
    .fil4 {fill:#26A9E1}
    .fil7 {fill:#55A6E0}
    .fil6 {fill:#8BC43F}
    .fil3 {fill:#90278E}
    .fil2 {fill:#E62A79}
    .fil5 {fill:#F59423}
   ]]>
  </style>
   <clipPath id="id0">
    <path d="M14860.18 146.51c8168.2,0 14789.85,4670.17 14789.85,10431.09 0,5760.93 -6621.65,10431.09 -14789.85,10431.09 -8168.21,0 -14789.86,-4670.16 -14789.86,-10431.09 0,-5760.92 6621.65,-10431.09 14789.86,-10431.09z"/>
   </clipPath>
     <clipPath id="id1">
      <path d="M14860.18 146.51c8168.2,0 14789.85,4670.17 14789.85,10431.09 0,5760.93 -6621.65,10431.09 -14789.85,10431.09 -8167.95,0 -14789.42,-4669.86 -14789.85,-10430.53l0 -1.12c0.43,-5760.66 6621.9,-10430.53 14789.85,-10430.53z"/>
     </clipPath>
     <clipPath id="id2">
      <path d="M14860.18 146.51c8168.2,0 14789.85,4670.17 14789.85,10431.09 0,5760.93 -6621.65,10431.09 -14789.85,10431.09 -8168.21,0 -14789.86,-4670.16 -14789.86,-10431.09 0,-5760.92 6621.65,-10431.09 14789.86,-10431.09z"/>
     </clipPath>
 </defs>
 <g id="Слой_x0020_1">
  <metadata id="CorelCorpID_0Corel-Layer"/>
  <path class="fil0" d="M14860.18 146.51c8168.2,0 14789.85,4670.17 14789.85,10431.09 0,5760.93 -6621.65,10431.09 -14789.85,10431.09 -8168.21,0 -14789.86,-4670.16 -14789.86,-10431.09 0,-5760.92 6621.65,-10431.09 14789.86,-10431.09z"/>
  <g style="clip-path:url(#id0)">
   <g id="_2853004440256">
    <g>
    </g>
    <g style="clip-path:url(#id1)">
     <image x="70.33" y="146.51" width="29579.71" height="20862.18" xlink:href="Лого сайт_Images\Лого сайт_ImgID1.png"/>
    </g>
    <g style="clip-path:url(#id2)">
     <g>
      <path class="fil1 str0" d="M3309.95 11596.19c-15.75,0 -35.26,-9.27 -38.88,-26.79 -0.7,-3.38 -1.93,-4.58 -1.93,-9.91"/>
      <g>
       <path class="fil0" d="M4089.42 9606.75c0,0 583.92,-39.9 630.91,-246 46.99,-206.09 -630.91,-139.61 -630.91,-139.61l0 385.61zm0 -385.61l0 385.61 0 -385.61zm30.02 1196.36l0 498.18c0,0 790.86,99.35 829.43,-256.04 33.07,-304.67 -661.57,-239.32 -807.74,-245.17l-21.69 3.03zm-789.2 -1777.81c0,0 741.65,-176.96 1129.38,-141.59 387.72,35.38 709.11,5.06 1050.93,358.8 341.81,353.74 -137.73,1091.54 -306.09,1126.92 -168.37,35.38 814.1,56.85 395.11,1025.26 -419,968.42 -2299.61,554.28 -2299.61,554.28l30.28 -2923.67zm0.33 -32.31l-30.61 2955.98 30.61 -2955.98z"/>
       <path id="_1" class="fil1 str1" d="M4089.42 9606.75c0,0 583.92,-39.9 630.91,-246 46.99,-206.09 -630.91,-139.61 -630.91,-139.61m0 0l0 385.61m30.02 810.75l0 498.18c0,0 790.86,99.35 829.43,-256.04 33.07,-304.67 -661.57,-239.32 -807.74,-245.17l-21.69 3.03zm-789.2 -1777.81c0,0 741.65,-176.96 1129.38,-141.59 387.72,35.38 709.11,5.06 1050.93,358.8 341.81,353.74 -137.73,1091.54 -306.09,1126.92 -168.37,35.38 814.1,56.85 395.11,1025.26 -419,968.42 -2299.61,554.28 -2299.61,554.28m30.61 -2955.98l-30.61 2955.98"/>
      </g>
      <path class="fil1 str0" d="M3301.71 8622.64c9.46,-9.17 22.61,-19.33 28.86,-15.26"/>
      <path class="fil2 str2" d="M4720.33 9360.75c-46.99,206.1 -630.91,246 -630.91,246l0 -385.61c0,0 677.9,-66.48 630.91,139.61zm-600.89 1554.93l0 -498.18 21.69 -3.03c146.17,5.85 840.81,-59.5 807.74,245.17 -38.57,355.39 -829.43,256.04 -829.43,256.04zm340.18 -2417.58c-387.73,-35.37 -1129.38,141.59 -1129.39,141.59l-30.27 2923.67c0,0 1880.61,414.14 2299.61,-554.28 418.99,-968.41 -563.48,-989.88 -395.11,-1025.26 168.36,-35.38 647.9,-773.18 306.09,-1126.92 -341.82,-353.74 -663.21,-323.42 -1050.93,-358.8z"/>
     </g>
     <g>
      <path class="fil1 str3" d="M5960.01 8575.22l5.13 2836.71m0 0c0,0 -5.14,50.84 87.25,55.92l1180.16 0c0,0 42.73,-0.64 64.81,-52.93m0 0l238.39 -881.3c0,0 30.19,-45.6 30.19,24.4m0 0l0 1156.47m0.28 -1.58c0,0 -6.69,47.19 84.14,49.35m0 0l740.12 0c0,0 48.67,-1.34 48.67,-73.98m0 0l0 -3112.46c0,0 -10.08,-72.35 -126.51,-72.35l-1024.19 125.91m2.15 -0.79c0,0 -24.38,6.74 -29.48,50.45m0 0l-517.41 1563.75c0,0 -39.09,82.55 -39.09,-5.42l0 -1639.46m0 0c0,0 -305.49,-59.91 -744.61,-22.69"/>
      <path class="fil1 str4" d="M5950.16 8582.34c0,0 -8.7,-13.91 15.72,-20.37"/>
      <path class="fil3 str5" d="M5972.31 8577.2l737.4 5.39c2.34,3.1 5.51,5.86 8.85,8.19l0 2858.8 -746.25 0 0 -2872.38z"/>
      <polygon class="fil3 str6" points="6713.78,11455.56 7296.43,11450.84 7283.27,10269.46 6700.62,10274.18 "/>
      <polygon class="fil3 str7" points="8432.9,11745.04 7557.11,11745.04 7557.11,8596.68 8432.9,8596.68 "/>
      <path class="fil3 str8" d="M7986.36 8724.6c254.67,-44.06 454.48,-117.49 446.28,-164.02 -8.21,-46.53 -221.31,-48.54 -475.99,-4.5 -254.67,44.05 -454.47,117.49 -446.27,164.02 8.2,46.53 221.3,48.54 475.98,4.5z"/>
      <polygon class="fil3 str8" points="8007.56,8864.64 7286.29,8634.78 6704.62,10332.57 7425.88,10562.43 "/>
      <path class="fil3 str8" d="M7463.12 8712.53c-70.09,1.86 -127.51,-19.21 -128.26,-47.09 -0.76,-27.88 55.44,-51.99 125.52,-53.85 70.09,-1.86 127.51,19.21 128.26,47.09 0.76,27.88 -55.43,51.99 -125.52,53.85z"/>
      <polygon class="fil3 str8" points="7315.36,11345.55 6978.12,11261.75 7286.18,10135.83 7623.43,10219.62 "/>
      <rect class="fil3 str5" transform="matrix(0.904461 0.321569 -0.276496 1.08938 7304 11345.5)" width="16.9" height="79.82"/>
      <path class="fil1 str3" d="M7263.57 8646.35c0,0 617.04,-85.17 745.17,-104.45 128.13,-19.28 383.76,-72.88 432.65,43.31"/>
      <rect class="fil0 str9" transform="matrix(0.801753 0.456436 -0.460784 0.794187 7307.74 11416.7)" width="8.7" height="42.62"/>
     </g>
     <g>
      <path class="fil1 str3" d="M9688.92 9724.29l0 -1160.86 -898.69 -7.32m0 0l-85.53 3148.58 992.92 0 6.17 -898.24c0,0 540.94,973.88 1086.32,1145.77l610.72 -709.03c0,0 -741.79,-398.22 -873.01,-936.72l0 -241.4 604.48 -1037.09 -754.57 -507.74c0,0 -98.17,660.77 -688.81,1204.05"/>
      <path class="fil4 str3" d="M9688.92 9724.29l0 -1160.86 -898.69 -7.32 -85.53 3148.58 992.92 0 6.17 -898.24c0,0 540.94,973.88 1086.32,1145.77l610.72 -709.03c0,0 -741.79,-398.22 -873.01,-936.72l0 -241.4 604.48 -1037.09 -754.57 -507.74c0,0 -98.17,660.77 -688.81,1204.05z"/>
     </g>
     <polygon class="fil5 str0" points="13635.17,8474.49 11251.18,8479.01 11251.18,9894.93 11885.78,9894.93 11885.78,11784.89 12798.56,11784.89 12798.56,9898.84 13635.17,9898.84 "/>
     <g>
      <path class="fil6 str3" d="M14825.26 8441.23c0,0 -764.08,28.03 -915.01,1420.3 -150.93,1392.28 647.02,2014.35 1074.99,2045.08 427.97,30.72 1097.84,-110.59 1153.66,-1628.15 55.83,-1517.55 -755.34,-2006.39 -1313.64,-1837.23z"/>
      <ellipse class="fil0 str10" cx="15016.58" cy="10159.74" rx="275.07" ry="814.76"/>
     </g>
     <g>
      <path class="fil2 str3" d="M17320.54 11756.53l-991.89 -8.56 142.97 -3278.87 1797.72 -35.34c0,0 863.2,113.06 699.12,1088.25 -164.08,975.19 -1048.68,1052.92 -1647.92,1123.58l0 1110.94z"/>
      <path class="fil0 str4" d="M17262.81 9883.94l3.17 -814.11c168,-1.4 966.77,-26.98 789.68,395.16 -177.1,422.14 -792.85,418.95 -792.85,418.95z"/>
     </g>
     <g>
      <path class="fil1 str3" d="M19295.49 8575.22l5.13 2836.71m0 0c0,0 -5.14,50.84 87.24,55.92l1180.17 0c0,0 42.72,-0.64 64.8,-52.93m0 0l238.4 -881.3c0,0 30.18,-45.6 30.18,24.4m0 0l0 1156.47m0.29 -1.58c0,0 -6.69,47.19 84.14,49.35m0 0l740.12 0c0,0 48.66,-1.34 48.66,-73.98m0 0l0 -3112.46c0,0 -10.08,-72.35 -126.5,-72.35l-1024.19 125.91m2.14 -0.79c0,0 -24.38,6.74 -29.48,50.45m0 0l-517.41 1563.75c0,0 -39.08,82.55 -39.08,-5.42l0 -1639.46m0 0c0,0 -305.49,-59.91 -744.61,-22.69"/>
      <path class="fil1 str4" d="M19285.64 8582.34c0,0 -8.7,-13.91 15.71,-20.37"/>
      <path class="fil3 str5" d="M19307.79 8577.2l737.4 5.39c2.34,3.1 5.51,5.86 8.85,8.19l0 2858.8 -746.25 0 0 -2872.38z"/>
      <polygon class="fil3 str6" points="20049.26,11455.56 20631.91,11450.84 20618.75,10269.46 20036.09,10274.18 "/>
      <polygon class="fil3 str7" points="21768.37,11745.04 20892.58,11745.04 20892.58,8596.68 21768.37,8596.68 "/>
      <path class="fil3 str8" d="M21321.84 8724.6c254.67,-44.06 454.47,-117.49 446.27,-164.02 -8.2,-46.53 -221.3,-48.54 -475.98,-4.5 -254.67,44.05 -454.48,117.49 -446.28,164.02 8.21,46.53 221.31,48.54 475.99,4.5z"/>
      <polygon class="fil3 str8" points="21343.03,8864.64 20621.77,8634.78 20040.1,10332.57 20761.36,10562.43 "/>
      <path class="fil3 str8" d="M20798.6 8712.53c-70.09,1.86 -127.51,-19.21 -128.26,-47.09 -0.76,-27.88 55.43,-51.99 125.52,-53.85 70.09,-1.86 127.5,19.21 128.26,47.09 0.76,27.88 -55.44,51.99 -125.52,53.85z"/>
      <polygon class="fil3 str8" points="20650.84,11345.55 20313.6,11261.75 20621.66,10135.83 20958.91,10219.62 "/>
      <rect class="fil3 str5" transform="matrix(0.904461 0.321569 -0.276496 1.08938 20639.5 11345.5)" width="16.9" height="79.82"/>
      <path class="fil1 str3" d="M20599.04 8646.35c0,0 617.04,-85.17 745.17,-104.45 128.13,-19.28 383.77,-72.88 432.65,43.31"/>
      <rect class="fil0 str9" transform="matrix(0.801753 0.456436 -0.460784 0.794187 20643.2 11416.7)" width="8.7" height="42.62"/>
     </g>
     <g>
      <g>
       <path class="fil7" d="M22985.5 8448.55c-37.75,-35.1 -88.45,-32.29 -88.45,-32.29l-405.64 -8.47c0,0 -137.44,1.41 -218.84,-87.55 -81.4,-88.97 -12.06,216.75 -12.06,216.75l-6.87 3119.48 754.01 12.6c37.56,-1032.63 -32.87,-1153.57 122.09,-1111.7 154.96,41.86 427.3,167.45 568.18,1121.01l670.64 -39.69c0,0 34.42,-2.39 44.63,-35.43 10.21,-33.04 10.12,-36.03 10.12,-36.03l-1437.81 -3118.68zm1339.43 40.79c-25.22,-28.07 -71.86,-26.06 -92.16,-28.07l-994.14 0c0,0 -78.57,-136.2 109.24,972.1l-428.97 209.16 67.1 -1212.15 1338.93 58.96zm0 -0.01l98.47 3080.89 -98.47 -3080.89z"/>
       <path id="_1_0" class="fil1 str3" d="M22985.5 8448.55c-37.75,-35.1 -88.45,-32.29 -88.45,-32.29l-405.64 -8.47c0,0 -137.44,1.41 -218.84,-87.55 -81.4,-88.97 -12.06,216.75 -12.06,216.75l-6.87 3119.48 754.01 12.6c37.56,-1032.63 -32.87,-1153.57 122.09,-1111.7 154.96,41.86 427.3,167.45 568.18,1121.01l670.64 -39.69c0,0 34.42,-2.39 44.63,-35.43 10.21,-33.04 10.12,-36.03 10.12,-36.03m-98.38 -3077.89c-25.22,-28.07 -71.86,-26.06 -92.16,-28.07l-994.14 0c0,0 -78.57,-136.2 109.24,972.1l-428.97 209.16 67.1 -1212.15m1338.93 58.95l98.47 3080.89 -98.47 -3080.89z"/>
      </g>
      <rect class="fil7 str11" transform="matrix(0.723052 -1.00675 0.762223 1.73243 23340.4 9214.23)" width="349.6" height="999.44"/>
      <rect class="fil7 str12" transform="matrix(1.06875 -0.0266694 0.0275514 1.01532 23771.7 8532.53)" width="511.32" height="3008.09"/>
      <rect class="fil7 str11" x="23412.42" y="8491.54" width="881.94" height="787.09"/>
      <rect class="fil7 str13" x="23245.38" y="8482.53" width="166.76" height="107.38"/>
      <rect class="fil7 str14" transform="matrix(3.28644 -0.4723 0.135404 0.949286 23245.4 8585.5)" width="63.57" height="720.47"/>
      <polygon class="fil7 str15" points="23293.38,8445.14 23581.93,9216.8 23360.13,9335.67 23058.58,8529.22 23216.08,8444.81 "/>
     </g>
     <g id="_2853004440496">
      <path class="fil1 str4" d="M24722.7 10435.47l-45 67.93 9.52 -14.37c0,0 -223.82,592.54 82.92,874.8 306.74,282.25 1020.69,343.35 1109.63,328.3l961.86 -311.98 0 -2165.8c0,0 48.46,-858.05 -1038.97,-791.82 -1087.44,66.23 -938.24,1267.4 -938.24,1267.4 0,0 423.67,-121.19 855.97,-44.03m2.68 18.59c0,0 -59.69,-368.81 66.32,-431.44 126.02,-62.64 252.03,229.64 252.03,361.86 0,132.22 -1346.36,668.03 -1339.73,890.72"/>
      <path class="fil5 str4" d="M25789.39 9233.05c126.02,-62.64 252.03,229.64 252.03,361.86 0,127.51 -1252.18,630.39 -1335.42,865.76l-18.78 28.36c0,0 -223.82,592.54 82.92,874.8 306.74,282.25 1020.69,343.35 1109.63,328.3l961.86 -311.98 0 -2165.8c0,0 48.46,-858.05 -1038.97,-791.82 -1087.44,66.23 -938.24,1267.4 -938.24,1267.4 0,0 423.67,-121.19 855.97,-44.03 -10.08,-75.64 -39.95,-358.7 69,-412.85z"/>
      <path class="fil0 str4" d="M26105.66 10368.06c-25.09,179.03 5.02,447.58 5.02,447.58 0,0 -1628.64,367.88 -5.02,-447.58z"/>
     </g>
    </g>
   </g>
  </g>
  <path class="fil1 str16" d="M14860.18 146.51c8168.2,0 14789.85,4670.17 14789.85,10431.09 0,5760.93 -6621.65,10431.09 -14789.85,10431.09 -8168.21,0 -14789.86,-4670.16 -14789.86,-10431.09 0,-5760.92 6621.65,-10431.09 14789.86,-10431.09z"/>
 </g>
</svg>
